<?xml version="1.0" standalone="no"?>
<!DOCTYPE svg PUBLIC "-//W3C//DTD SVG 20010904//EN"
 "http://www.w3.org/TR/2001/REC-SVG-20010904/DTD/svg10.dtd">
<svg version="1.0" xmlns="http://www.w3.org/2000/svg"
 width="300.000000pt" height="300.000000pt" viewBox="0 0 300.000000 300.000000"
 preserveAspectRatio="xMidYMid meet">
<metadata>
Created by potrace 1.10, written by Peter Selinger 2001-2011
</metadata>
<g transform="translate(0.000000,300.000000) scale(0.100000,-0.100000)"
fill="#000000" stroke="none">
<path d="M1108 2743 c-45 -49 -170 -322 -212 -463 -59 -203 -79 -368 -64 -523
12 -123 12 -133 3 -258 -6 -69 -4 -92 9 -117 9 -17 16 -33 16 -37 0 -3 -26 -5
-59 -5 -105 0 -181 -11 -181 -27 0 -12 20 -13 124 -7 l124 7 21 -42 c15 -29
18 -41 9 -41 -7 0 -68 -14 -135 -31 -81 -21 -123 -37 -123 -45 0 -19 9 -18
140 16 138 36 150 37 178 7 l22 -24 -126 -69 c-69 -38 -130 -77 -135 -86 -17
-31 11 -21 127 42 152 83 168 88 207 59 17 -12 57 -35 89 -51 32 -15 58 -33
58 -39 0 -19 -61 -192 -85 -239 -12 -25 -28 -63 -35 -85 -7 -22 -55 -125 -106
-228 -87 -175 -155 -347 -168 -424 -5 -28 -2 -33 14 -33 13 0 22 9 26 28 20
92 77 239 152 387 123 246 232 517 232 576 0 49 -15 64 -117 120 -91 48 -172
117 -173 145 0 6 -10 26 -23 45 -36 53 -51 136 -42 221 5 40 7 96 4 123 -2 28
-4 129 -3 225 1 153 4 188 27 280 42 171 112 351 196 508 37 68 60 78 86 39
48 -74 182 -438 207 -562 7 -35 20 -68 33 -81 20 -20 29 -21 121 -17 127 7
143 20 180 143 49 161 122 376 149 432 72 153 120 110 210 -193 77 -260 86
-319 86 -599 1 -135 1 -294 2 -355 1 -96 -2 -115 -21 -150 -12 -22 -22 -46
-22 -53 0 -7 -18 -36 -40 -65 -30 -40 -58 -62 -117 -94 -43 -22 -95 -46 -115
-53 -21 -6 -47 -23 -59 -38 -19 -25 -21 -35 -14 -112 10 -128 81 -467 131
-622 24 -76 47 -169 50 -208 6 -59 10 -70 25 -70 37 0 23 106 -42 308 -46 142
-115 478 -125 604 l-7 86 67 21 c36 11 91 36 121 56 31 19 62 35 70 35 24 0
177 -51 244 -81 36 -17 68 -26 73 -21 13 13 -95 67 -197 97 -49 15 -94 30 -98
32 -5 3 6 21 25 40 l33 35 115 -5 c78 -4 134 -12 172 -26 32 -11 60 -16 63
-11 12 20 -114 60 -190 60 -85 0 -145 11 -145 27 0 8 7 27 15 42 13 27 20 29
116 41 55 7 121 10 145 6 35 -4 44 -3 44 9 0 12 -17 15 -92 14 -51 0 -115 -4
-141 -8 l-48 -8 7 41 c10 53 6 160 -7 209 -7 26 -7 92 0 200 14 222 -5 365
-76 597 -58 191 -84 258 -113 298 -66 91 -132 55 -199 -108 -28 -68 -51 -138
-136 -413 -15 -49 -32 -90 -39 -92 -6 -2 -55 -5 -108 -7 l-98 -4 0 26 c0 42
-68 264 -115 375 -23 55 -55 133 -70 173 -47 120 -94 151 -147 95z"/>
<path d="M1182 1847 c-50 -16 -118 -81 -148 -142 -23 -48 -26 -64 -22 -129 3
-64 8 -81 33 -118 17 -23 49 -56 73 -72 36 -26 53 -30 127 -34 137 -7 200 28
240 133 21 54 16 168 -10 231 -20 48 -79 112 -122 130 -37 16 -123 17 -171 1z
m174 -46 c69 -42 103 -118 104 -230 0 -70 -31 -136 -73 -158 -36 -18 -139 -29
-192 -19 -43 8 -117 72 -135 116 -7 17 -11 58 -8 98 3 59 8 75 38 117 46 64
105 95 179 95 37 0 66 -6 87 -19z"/>
<path d="M1303 1654 c-9 -15 -17 -41 -17 -59 0 -32 27 -85 42 -85 42 0 65 85
38 138 -20 39 -40 41 -63 6z"/>
<path d="M1821 1838 c-84 -41 -142 -152 -140 -267 1 -84 15 -121 63 -171 88
-91 232 -78 310 28 48 65 59 115 46 198 -6 37 -17 81 -25 99 -19 48 -88 112
-132 124 -54 15 -72 14 -122 -11z m136 -39 c54 -26 87 -81 104 -171 15 -82 4
-131 -44 -185 -81 -92 -206 -84 -275 17 -22 32 -23 43 -20 120 5 94 25 146 75
191 59 55 92 61 160 28z"/>
<path d="M1826 1658 c-34 -49 -14 -158 29 -158 47 0 63 104 24 154 -25 32 -33
32 -53 4z"/>
<path d="M1560 1450 c-11 -11 -20 -26 -20 -34 0 -22 49 -56 80 -56 27 0 70 36
70 58 0 24 -40 52 -75 52 -22 0 -43 -8 -55 -20z m100 -35 c0 -11 -12 -15 -45
-15 -33 0 -45 4 -45 15 0 11 12 15 45 15 33 0 45 -4 45 -15z"/>
</g>
</svg>
